<svg width="28" height="28" viewBox="0 0 28 28" fill="none" xmlns="http://www.w3.org/2000/svg">
<path d="M5.83317 6.5C4.47598 6.5 3.4165 5.44052 3.4165 4.08333C3.4165 2.72614 4.47598 1.66666 5.83317 1.66666C7.19036 1.66666 8.24984 2.72614 8.24984 4.08333C8.24984 5.44052 7.19036 6.5 5.83317 6.5Z" stroke="#091057"/>
<path d="M3.41523 18.631L3.39777 18.3866L3.19385 18.2506L1.6665 17.2324V12.8333C1.6665 10.5428 3.54265 8.66666 5.83317 8.66666C8.12369 8.66666 9.99984 10.5428 9.99984 12.8333V17.2324L8.47249 18.2506L8.26857 18.3866L8.25111 18.631L7.70094 26.3333H3.9654L3.41523 18.631Z" stroke="#091057"/>
<path d="M13.5532 23.6834L13.5533 23.6834L13.5556 23.6729C13.703 22.995 13.8784 22.2915 14.2182 21.7567C14.459 21.3776 14.7765 21.0898 15.2503 20.9733V21.1466C15.137 21.178 15.0278 21.222 14.9234 21.2807C14.6718 21.4225 14.4869 21.6283 14.3445 21.8657C14.078 22.3098 13.9178 22.9456 13.7481 23.6807L13.7408 23.7085C13.5631 24.39 13.3909 25.0502 13.0741 25.5534C12.7779 26.0238 12.3716 26.3333 11.667 26.3333C11.4084 26.3333 11.1621 26.245 10.9019 26.0901C10.6857 25.9614 10.4896 25.8066 10.2751 25.6372C10.2206 25.5941 10.1648 25.5501 10.1073 25.5053C10.065 25.4724 10.0215 25.438 9.97673 25.4026C9.6261 25.125 9.19985 24.7875 8.66699 24.6483V24.4724C9.24036 24.6046 9.67283 24.9533 10.121 25.3147C10.1604 25.3464 10.1999 25.3783 10.2397 25.4101C10.4369 25.5791 10.6507 25.7609 10.8652 25.8982C11.0816 26.0367 11.3533 26.1667 11.667 26.1667C11.9385 26.1667 12.1979 26.1127 12.433 25.9755C12.6669 25.8391 12.8386 25.6426 12.9715 25.4194C13.2219 24.9993 13.3824 24.3951 13.5532 23.6834Z" stroke="#091057"/>
<path d="M26.3332 21C26.3332 23.9455 23.9454 26.3333 20.9998 26.3333C18.0543 26.3333 15.6665 23.9455 15.6665 21C15.6665 18.0545 18.0543 15.6667 20.9998 15.6667C23.9454 15.6667 26.3332 18.0545 26.3332 21Z" stroke="#091057"/>
<path d="M20.4168 19.8333C20.4752 19.95 20.4752 20.0083 20.5918 20.0667C20.6502 20.125 20.7668 20.1833 20.8835 20.3C21.0002 20.3583 21.1752 20.4167 21.3502 20.475C21.6418 20.5917 21.8752 20.7083 22.1085 20.825C22.3418 20.9417 22.5168 21.0583 22.6918 21.2333C22.8668 21.4083 22.9835 21.5833 23.1002 21.7583C23.2168 21.9917 23.2168 22.225 23.2168 22.5167C23.2168 22.75 23.1585 22.9833 23.1002 23.2167C23.0418 23.45 22.9252 23.625 22.7502 23.7417C22.5752 23.9167 22.4002 24.0333 22.2252 24.0917C21.9918 24.2083 21.7585 24.2667 21.5252 24.2667V25.1417H20.8252V24.2667C20.5918 24.2667 20.3585 24.2083 20.1252 24.0917C19.8918 23.975 19.7168 23.8583 19.5418 23.7417C19.3668 23.5667 19.2502 23.3917 19.1335 23.1C19.0168 22.8667 18.9585 22.575 18.9585 22.225H20.2418C20.2418 22.4583 20.2418 22.6333 20.3002 22.75C20.3585 22.8667 20.4168 22.9833 20.5335 23.1C20.6502 23.1583 20.7085 23.2167 20.8252 23.275C20.9418 23.3333 21.0585 23.3333 21.1752 23.3333C21.2918 23.3333 21.4085 23.3333 21.5252 23.275C21.6418 23.2167 21.7002 23.1583 21.7585 23.1C21.8168 23.0417 21.8752 22.925 21.9335 22.8667C21.9918 22.75 21.9918 22.6917 21.9918 22.575C21.9918 22.4583 21.9918 22.3417 21.9335 22.225C21.8752 22.1083 21.8752 22.05 21.7585 21.9917C21.7002 21.9333 21.5835 21.8167 21.4668 21.7583C21.3502 21.7 21.2335 21.6417 21.0585 21.5833C20.7668 21.4667 20.5335 21.35 20.3002 21.2333C20.0668 21.1167 19.8918 21 19.7168 20.825C19.5418 20.65 19.4252 20.475 19.3085 20.3C19.1918 20.0667 19.1918 19.8333 19.1918 19.5417C19.1918 19.3083 19.2502 19.075 19.3085 18.8417C19.3668 18.6667 19.4835 18.4333 19.6585 18.3167C19.8335 18.1417 20.0085 18.025 20.1835 17.9667C20.4168 17.85 20.6502 17.7917 20.8835 17.7917V16.8583H21.5835V17.7917C21.8168 17.85 22.0502 17.9083 22.2835 18.025C22.5168 18.1417 22.6335 18.2583 22.8085 18.4333C22.9252 18.6083 23.0418 18.7833 23.1585 19.0167C23.2168 19.25 23.2752 19.5417 23.2752 19.8333H21.9918C21.9918 19.4833 21.9335 19.25 21.7585 19.075C21.6418 18.9 21.4085 18.8417 21.1752 18.8417C21.0585 18.8417 20.9418 18.8417 20.8252 18.9C20.7085 18.9583 20.6502 19.0167 20.5918 19.075C20.4752 19.075 20.4168 19.1333 20.4168 19.25C20.4168 19.425 20.3585 19.425 20.3585 19.5417C20.3585 19.6583 20.3585 19.775 20.4168 19.8333Z" fill="#091057"/>
</svg>
