<svg width="41" height="50" viewBox="0 0 41 50" fill="none" xmlns="http://www.w3.org/2000/svg">
<path fill-rule="evenodd" clip-rule="evenodd" d="M4.72676 9.41426C5.75235 8.38867 7.14335 7.8125 8.59375 7.8125H27.3438C28.7942 7.8125 30.1852 8.38867 31.2107 9.41426C32.2363 10.4398 32.8125 11.8308 32.8125 13.2812V17.1875C32.8125 18.0504 32.1129 18.75 31.25 18.75C30.3871 18.75 29.6875 18.0504 29.6875 17.1875V13.2812C29.6875 12.6596 29.4406 12.0635 29.001 11.624C28.5615 11.1844 27.9654 10.9375 27.3438 10.9375H8.59375C7.97215 10.9375 7.37601 11.1844 6.93647 11.624C6.49693 12.0635 6.25 12.6596 6.25 13.2812V36.7188C6.25 37.3404 6.49693 37.9365 6.93647 38.376C7.37601 38.8156 7.97215 39.0625 8.59375 39.0625H27.3438C27.9654 39.0625 28.5615 38.8156 29.001 38.376C29.4406 37.9365 29.6875 37.3404 29.6875 36.7188V32.8125C29.6875 31.9496 30.3871 31.25 31.25 31.25C32.1129 31.25 32.8125 31.9496 32.8125 32.8125V36.7188C32.8125 38.1692 32.2363 39.5602 31.2107 40.5857C30.1852 41.6113 28.7942 42.1875 27.3438 42.1875H8.59375C7.14335 42.1875 5.75235 41.6113 4.72676 40.5857C3.70117 39.5602 3.125 38.1692 3.125 36.7188V13.2812C3.125 11.8308 3.70117 10.4398 4.72676 9.41426Z" fill="#121619"/>
<path fill-rule="evenodd" clip-rule="evenodd" d="M36.3951 16.0826C37.0053 15.4725 37.9947 15.4725 38.6049 16.0826L46.4174 23.8951C47.0275 24.5053 47.0275 25.4947 46.4174 26.1049L38.6049 33.9174C37.9947 34.5275 37.0053 34.5275 36.3951 33.9174C35.785 33.3072 35.785 32.3178 36.3951 31.7076L43.1028 25L36.3951 18.2924C35.785 17.6822 35.785 16.6928 36.3951 16.0826Z" fill="#121619"/>
<path fill-rule="evenodd" clip-rule="evenodd" d="M17.0898 25C17.0898 24.1371 17.7894 23.4375 18.6523 23.4375H45.3125C46.1754 23.4375 46.875 24.1371 46.875 25C46.875 25.8629 46.1754 26.5625 45.3125 26.5625H18.6523C17.7894 26.5625 17.0898 25.8629 17.0898 25Z" fill="#121619"/>
</svg>
