<svg width="41" height="50" viewBox="0 0 41 50" fill="none" xmlns="http://www.w3.org/2000/svg">
<path d="M6.625 25C6.625 24.5856 6.78962 24.1882 7.08265 23.8951C7.37567 23.6021 7.7731 23.4375 8.1875 23.4375H22.25V13.2812C22.25 10.1562 18.9502 7.8125 16 7.8125H1.15625C-0.293677 7.81405 -1.68377 8.39072 -2.70903 9.41597C-3.73428 10.4412 -4.31095 11.8313 -4.3125 13.2812V36.7188C-4.31095 38.1687 -3.73428 39.5588 -2.70903 40.584C-1.68377 41.6093 -0.293677 42.1859 1.15625 42.1875H16.7812C18.2312 42.1859 19.6213 41.6093 20.6465 40.584C21.6718 39.5588 22.2484 38.1687 22.25 36.7188V26.5625H8.1875C7.7731 26.5625 7.37567 26.3979 7.08265 26.1049C6.78962 25.8118 6.625 25.4144 6.625 25ZM35.8545 23.8955L28.042 16.083C27.7466 15.8024 27.3532 15.6482 26.9458 15.6534C26.5383 15.6586 26.1491 15.8228 25.8609 16.1109C25.5728 16.3991 25.4086 16.7883 25.4034 17.1958C25.3982 17.6032 25.5524 17.9966 25.833 18.292L30.9775 23.4375H22.25V26.5625H30.9775L25.833 31.708C25.6818 31.8517 25.5609 32.0241 25.4774 32.2152C25.3939 32.4063 25.3495 32.6122 25.3468 32.8208C25.3442 33.0293 25.3833 33.2363 25.4619 33.4295C25.5404 33.6227 25.6569 33.7982 25.8044 33.9456C25.9518 34.0931 26.1273 34.2096 26.3205 34.2881C26.5137 34.3667 26.7207 34.4058 26.9292 34.4032C27.1378 34.4005 27.3437 34.3561 27.5348 34.2726C27.7259 34.1891 27.8983 34.0682 28.042 33.917L35.8545 26.1045C36.1473 25.8115 36.3118 25.4142 36.3118 25C36.3118 24.5858 36.1473 24.1885 35.8545 23.8955Z" fill="black"/>
</svg>
