<svg width="25" height="25" viewBox="0 0 25 25" fill="none" xmlns="http://www.w3.org/2000/svg">
<path d="M20.5 12.5C20.5 10.69 16.74 8.51502 12.493 8.50002C8.275 8.48502 4.5 10.678 4.5 12.5C4.5 14.325 8.254 16.506 12.497 16.5C16.752 16.494 20.5 14.32 20.5 12.5ZM12.5 18.5C7.458 18.507 2.5 15.814 2.5 12.5C2.5 9.18602 7.484 6.48302 12.5 6.50002C17.516 6.51702 22.5 9.18602 22.5 12.5C22.5 15.814 17.542 18.493 12.5 18.5ZM12.5 16.5C11.4391 16.5 10.4217 16.0786 9.67157 15.3284C8.92143 14.5783 8.5 13.5609 8.5 12.5C8.5 11.4392 8.92143 10.4217 9.67157 9.67159C10.4217 8.92145 11.4391 8.50002 12.5 8.50002C13.5609 8.50002 14.5783 8.92145 15.3284 9.67159C16.0786 10.4217 16.5 11.4392 16.5 12.5C16.5 13.5609 16.0786 14.5783 15.3284 15.3284C14.5783 16.0786 13.5609 16.5 12.5 16.5ZM12.5 14.5C13.0304 14.5 13.5391 14.2893 13.9142 13.9142C14.2893 13.5392 14.5 13.0305 14.5 12.5C14.5 11.9696 14.2893 11.4609 13.9142 11.0858C13.5391 10.7107 13.0304 10.5 12.5 10.5C11.9696 10.5 11.4609 10.7107 11.0858 11.0858C10.7107 11.4609 10.5 11.9696 10.5 12.5C10.5 13.0305 10.7107 13.5392 11.0858 13.9142C11.4609 14.2893 11.9696 14.5 12.5 14.5Z" fill="#697077"/>
</svg>
