<svg width="28" height="28" viewBox="0 0 28 28" fill="none" xmlns="http://www.w3.org/2000/svg">
<g clip-path="url(#clip0_1121_6678)">
<path d="M5.83333 4.66667H10.5L14 8.16667H22.1667C22.7855 8.16667 23.379 8.4125 23.8166 8.85009C24.2542 9.28767 24.5 9.88117 24.5 10.5V19.8333C24.5 20.4522 24.2542 21.0457 23.8166 21.4833C23.379 21.9208 22.7855 22.1667 22.1667 22.1667H5.83333C5.21449 22.1667 4.621 21.9208 4.18342 21.4833C3.74583 21.0457 3.5 20.4522 3.5 19.8333V7.00001C3.5 6.38117 3.74583 5.78767 4.18342 5.35009C4.621 4.9125 5.21449 4.66667 5.83333 4.66667" stroke="#091057" stroke-width="2" stroke-linecap="round" stroke-linejoin="round"/>
<path d="M14 11.6667V18.6667" stroke="#091057" stroke-width="2" stroke-linecap="round" stroke-linejoin="round"/>
<path d="M10.5 15.1667H17.5" stroke="#091057" stroke-width="2" stroke-linecap="round" stroke-linejoin="round"/>
</g>
<defs>
<clipPath id="clip0_1121_6678">
<rect width="28" height="28" fill="white"/>
</clipPath>
</defs>
</svg>
