<svg width="28" height="28" viewBox="0 0 28 28" fill="none" xmlns="http://www.w3.org/2000/svg">
<path fill-rule="evenodd" clip-rule="evenodd" d="M5.5998 5.60001C4.05341 5.60001 2.7998 6.85361 2.7998 8.40001V19.6C2.7998 21.1464 4.05341 22.4 5.5998 22.4H22.3998C23.9462 22.4 25.1998 21.1464 25.1998 19.6V11.2C25.1998 9.65361 23.9462 8.40001 22.3998 8.40001H15.3998L12.5998 5.60001H5.5998ZM15.3998 12.6C15.3998 11.8268 14.773 11.2 13.9998 11.2C13.2266 11.2 12.5998 11.8268 12.5998 12.6V14H11.1998C10.4266 14 9.79981 14.6268 9.79981 15.4C9.79981 16.1732 10.4266 16.8 11.1998 16.8H12.5998V18.2C12.5998 18.9732 13.2266 19.6 13.9998 19.6C14.773 19.6 15.3998 18.9732 15.3998 18.2V16.8H16.7998C17.573 16.8 18.1998 16.1732 18.1998 15.4C18.1998 14.6268 17.573 14 16.7998 14H15.3998V12.6Z" fill="#21272A"/>
</svg>
