<svg width="35" height="36" viewBox="0 0 35 36" fill="none" xmlns="http://www.w3.org/2000/svg">
<path d="M20.2029 6.11969C20.3357 5.98217 20.4092 5.79798 20.4075 5.60679C20.4059 5.41561 20.3292 5.23272 20.194 5.09753C20.0588 4.96234 19.8759 4.88565 19.6847 4.88399C19.4935 4.88233 19.3093 4.95583 19.1718 5.08865L17.4998 6.76063L15.8279 5.08865C15.7606 5.01901 15.6801 4.96346 15.5912 4.92524C15.5022 4.88703 15.4065 4.86691 15.3097 4.86607C15.2129 4.86523 15.1169 4.88368 15.0273 4.92034C14.9377 4.957 14.8563 5.01115 14.7878 5.07961C14.7193 5.14807 14.6652 5.22949 14.6285 5.3191C14.5919 5.40871 14.5734 5.50473 14.5742 5.60155C14.5751 5.69836 14.5952 5.79405 14.6334 5.88301C14.6716 5.97197 14.7272 6.05243 14.7968 6.11969L16.4688 7.79167L14.7968 9.46365C14.664 9.60117 14.5905 9.78536 14.5922 9.97655C14.5938 10.1677 14.6705 10.3506 14.8057 10.4858C14.9409 10.621 15.1238 10.6977 15.315 10.6993C15.5062 10.701 15.6903 10.6275 15.8279 10.4947L17.4998 8.82271L19.1718 10.4947C19.3086 10.6314 19.4942 10.7082 19.6876 10.7081C19.881 10.7081 20.0665 10.6311 20.2032 10.4943C20.34 10.3575 20.4167 10.172 20.4167 9.97855C20.4166 9.78512 20.3397 9.59964 20.2029 9.46292L18.5309 7.79167L20.2029 6.11969Z" fill="#091057"/>
<path fill-rule="evenodd" clip-rule="evenodd" d="M4.87359 19.7857L7.29151 20.5915V26.75C7.29151 26.9016 7.33878 27.0495 7.42673 27.173C7.51468 27.2965 7.63895 27.3895 7.78223 27.4391L17.2556 30.7181C17.4054 30.7714 17.5685 30.7742 17.72 30.7262L17.7303 30.7232L17.7412 30.7196L27.2174 27.4391C27.3607 27.3895 27.485 27.2965 27.5729 27.173C27.6609 27.0495 27.7082 26.9016 27.7082 26.75V20.5915L30.1261 19.7857C30.2376 19.7486 30.3385 19.6851 30.4202 19.6006C30.5019 19.5161 30.562 19.4131 30.5953 19.3004C30.6286 19.1877 30.6341 19.0686 30.6115 18.9533C30.5888 18.8379 30.5386 18.7298 30.4652 18.638L27.5485 14.9922C27.462 14.8845 27.3467 14.8036 27.216 14.7589L17.7383 11.4776C17.5838 11.4242 17.4159 11.4242 17.2614 11.4776L7.78369 14.7589C7.653 14.8036 7.53769 14.8845 7.45119 14.9922L4.53453 18.638C4.46105 18.7298 4.41085 18.8379 4.38819 18.9533C4.36553 19.0686 4.37109 19.1877 4.40439 19.3004C4.43769 19.4131 4.49775 19.5161 4.57944 19.6006C4.66114 19.6851 4.76206 19.7486 4.87359 19.7857ZM15.5449 22.7928L16.7707 21.0428V29.0075L8.74984 26.2308V21.0771L14.7173 23.0663C14.8664 23.1158 15.0275 23.1159 15.1766 23.0665C15.3258 23.0171 15.4549 22.9216 15.5449 22.7928ZM10.2497 15.4479L17.4998 17.9577L24.7499 15.4479L17.4998 12.9381L10.2497 15.4479ZM19.4547 22.7935L18.229 21.0421V29.0075L26.2498 26.2308V21.0771L20.2823 23.0663C20.1333 23.1158 19.9722 23.1159 19.823 23.0665C19.6739 23.0171 19.5447 22.9208 19.4547 22.7921M8.26859 16.3054L6.32682 18.7328L10.3453 20.0723L14.6619 21.5109L16.3485 19.1025L16.25 19.0682L8.26859 16.3054ZM28.6729 18.7328L26.7311 16.3047L18.6512 19.1025L20.3378 21.5109L28.6729 18.7328Z" fill="#091057"/>
</svg>
