<svg width="41" height="50" viewBox="0 0 41 50" fill="none" xmlns="http://www.w3.org/2000/svg">
<path d="M25 31.25C28.4519 31.25 31.25 28.4519 31.25 25C31.25 21.5481 28.4519 18.75 25 18.75C21.5481 18.75 18.75 21.5481 18.75 25C18.75 28.4519 21.5481 31.25 25 31.25Z" stroke="#121619" stroke-width="1.5" stroke-linecap="round" stroke-linejoin="round"/>
<path d="M40.88 21.6571L38.5931 16.135L41.6667 12.5L37.5 8.33335L33.8848 11.4228L28.2454 9.10365L26.9486 4.16669H22.8771L21.5606 9.16904L16.0509 11.4916L12.5 8.33335L8.33335 12.5L11.3612 16.2268L9.1094 21.7631L4.16669 22.9167V27.0834L9.169 28.449L11.4912 33.9577L8.33335 37.5L12.5 41.6667L16.2316 38.6256L21.6604 40.859L22.9167 45.8334H27.0834L28.3427 40.8609L33.8648 38.574C34.7852 39.2319 37.5 41.6667 37.5 41.6667L41.6667 37.5L38.5748 33.8529L40.8623 28.3292L45.8331 27.0359L45.8334 22.9167L40.88 21.6571Z" stroke="#121619" stroke-width="1.5" stroke-linecap="round" stroke-linejoin="round"/>
</svg>
