<svg width="55" height="56" viewBox="0 0 55 56" fill="none" xmlns="http://www.w3.org/2000/svg">
<g clip-path="url(#clip0_1104_3599)">
<path d="M6.73611 19.8023C7.0939 20.1367 7.52433 27.6712 8.09733 29.0318C8.67033 30.3924 10.1418 32.6505 10.1418 32.6505C10.1418 32.6505 9.20029 35.2229 8.43898 35.726C7.67766 36.2291 5.88334 36.6321 5.88334 36.6321C5.88334 36.6321 0.820488 33.2707 0.0914585 30.118C-0.637571 26.9652 3.15823 21.2571 3.15823 21.2571C4.58669 19.3363 6.37832 19.465 6.73611 19.8023Z" fill="#091057"/>
<path d="M19.1807 31.1956C17.2573 31.0126 9.11421 37.2867 7.09391 37.7269C5.07361 38.167 2.07948 34.4598 2.07948 34.4598C2.13036 35.1405 2.2202 35.8172 2.3485 36.4863C2.52067 37.2152 4.89069 44.1838 5.50673 44.9499C6.12277 45.7159 8.04891 46.4819 8.04891 46.4819L10.4889 46.8478C10.4889 46.8478 10.9005 49.6575 12.1352 50.7523C13.37 51.847 16.3588 51.3011 16.3588 51.3011C16.3588 51.3011 16.3588 52.613 17.7038 53.8907C19.0489 55.1684 21.1042 54.8768 21.1042 54.8768L23.9208 54.2194C23.9208 54.2194 22.4788 51.8099 22.8205 50.2406C23.1621 48.6714 24.7789 47.8339 24.7789 47.8339L23.4338 45.5473L18.0536 49.5489L23.1648 44.4039C23.1648 44.4039 22.4089 42.7604 22.9604 41.6313C23.5119 40.5023 24.7789 39.4762 24.7789 39.4762C24.4868 38.4398 24.4978 37.3336 24.8105 36.3041C25.1233 35.2745 25.723 34.3702 26.5302 33.7109C26.5302 33.7109 26.4952 32.7619 22.8205 36.2291L12.1406 44.5868L23.1299 35.3544C23.1299 35.3544 23.3989 33.5308 22.2045 32.3618C21.01 31.1927 21.1042 31.3756 19.1807 31.1956Z" fill="#091057"/>
<path d="M25.021 53.5249C25.021 53.5249 23.7136 51.7013 23.945 50.4236C24.1763 49.1459 24.8031 48.197 25.9007 48.1369C26.9983 48.0769 28.7872 50.8381 28.7872 50.8381L23.6517 43.3464C23.6218 42.9357 23.6788 42.5231 23.8184 42.1388C23.9581 41.7545 24.1769 41.4082 24.4588 41.1255C24.7661 40.8151 25.1367 40.5845 25.5418 40.4516C25.9469 40.3187 26.3754 40.2872 26.7938 40.3594L32.392 45.7217L37.6136 49.5547L28.65 41.3427L25.8039 38.8931C25.8039 38.8931 25.4595 36.7036 26.2504 35.2087C27.0413 33.7138 28.9406 33.5652 28.9406 33.5652C30.4444 33.7653 32.6341 36.0062 34.5388 37.3982L42.6092 44.544C42.6092 44.544 34.4016 37.3182 33.4035 35.7861C32.4055 34.254 32.6503 33.1965 32.6503 33.1965C32.6503 33.1965 33.4035 31.7358 35.4319 31.3357C36.6153 31.0895 37.8419 31.2559 38.9291 31.8102L44.9738 35.6403L48.202 37.7212C50.5021 38.23 53.0765 34.4713 53.0765 34.4713L51.3253 38.8502C51.3253 38.8502 51.4974 42.7204 50.3649 44.5069C49.2323 46.2933 45.111 46.7935 45.111 46.7935C45.111 46.7935 44.3901 50.2978 42.741 51.0267C41.092 51.7556 39.2438 51.284 39.2438 51.284C39.2438 51.284 38.6601 53.765 37.1482 54.4281C35.6363 55.0913 31.6872 54.2481 31.6872 54.2481L30.1753 55.3771C30.1753 55.3771 27.2915 55.6343 26.8449 55.3771C26.3984 55.1198 25.021 53.5249 25.021 53.5249Z" fill="#091057"/>
<path d="M46.9995 19.6022L46.7305 25.3931L46.0095 28.9318L44.9792 30.6839C44.9792 30.6839 44.8393 32.5075 44.9792 33.2736C45.1191 34.0396 46.6256 35.5002 46.6256 35.5002C46.6256 35.5002 47.7016 36.815 48.7562 36.6435C49.8107 36.472 52.7053 33.6023 52.7053 33.6023C52.7053 33.6023 55.0054 31.6014 55.0054 30.2466C54.9908 29.3474 54.8761 28.4532 54.6637 27.5826C54.6637 27.5826 52.6354 21.4772 51.1934 20.5397C49.7515 19.6022 46.9995 19.6022 46.9995 19.6022Z" fill="#091057"/>
<path d="M30.2991 33.0364L31.2864 33.5824C31.3449 33.3497 31.427 33.1245 31.5312 32.9107L31.7787 32.4047C31.7787 32.3876 31.7975 32.3733 31.8056 32.359C31.2275 32.5964 30.6306 32.7781 30.022 32.9021C30.1081 32.9421 30.2076 32.985 30.2991 33.0364Z" fill="#EC8305"/>
<path d="M22.651 14.22C22.6515 14.5092 22.7146 14.7945 22.8354 15.0537C22.9562 15.3129 23.1315 15.5391 23.3478 15.7149C23.7244 16.0522 24.4427 16.3952 25.4999 16.7496V11.8733C24.7458 11.9547 24.0227 12.2347 23.3962 12.6879C23.1611 12.8565 22.9696 13.0851 22.8394 13.3528C22.7092 13.6205 22.6444 13.9187 22.651 14.22Z" fill="#EC8305"/>
<path d="M29.3468 23.035C29.1343 22.955 28.8088 22.8521 28.3864 22.7263V28.866C29.112 28.761 29.7987 28.4543 30.3771 27.9771C30.7276 27.7004 31.0136 27.3418 31.2128 26.9289C31.4119 26.516 31.5191 26.06 31.5258 25.5961C31.5389 25.0539 31.3669 24.5249 31.0416 24.1069C30.7152 23.6934 30.1502 23.3361 29.3468 23.035Z" fill="#EC8305"/>
<path d="M23.5226 32.9106C23.6731 33.218 23.7766 33.549 23.8293 33.891L25.2416 33.1078C24.6413 33.0474 24.046 32.9394 23.4608 32.7848L23.5226 32.9106Z" fill="#EC8305"/>
<path d="M17.7953 30.481C18.2623 30.2227 18.7835 30.0948 19.3098 30.1094C18.2338 28.7431 17.5774 26.9652 17.3299 24.7329L21.8897 24.2612C22.1641 25.8867 22.721 27.0815 23.5603 27.8456C24.1196 28.3404 24.7863 28.6794 25.4999 28.8317V21.9317C23.0393 21.2743 21.3086 20.4701 20.3079 19.5193C19.6285 18.9084 19.0844 18.1455 18.7147 17.2853C18.345 16.425 18.1587 15.4886 18.1692 14.5429C18.1696 13.2883 18.5197 12.062 19.1753 11.0186C19.8843 9.90145 20.8941 9.03771 22.0726 8.54043C23.1647 8.06961 24.323 7.79528 25.4999 7.72866V7.71436C25.5013 7.3085 25.6537 6.91969 25.9238 6.63269C26.1939 6.3457 26.5598 6.18381 26.9418 6.1823C27.3242 6.18306 27.6909 6.34462 27.9615 6.63169C28.2322 6.91877 28.385 7.30801 28.3864 7.71436V7.77725C30.4435 8.0021 32.0576 8.64904 33.2287 9.71806C34.7011 11.0767 35.474 12.887 35.5476 15.1489L30.8613 15.369C30.6605 14.1037 30.23 13.1919 29.5701 12.6336C29.2202 12.3508 28.8204 12.1457 28.3945 12.0304V17.5613C30.3045 18.072 31.7464 18.5998 32.7202 19.1448C33.7735 19.7181 34.6606 20.5845 35.2866 21.6516C35.9352 22.8428 36.2559 24.2036 36.212 25.5789C36.214 26.9887 35.8288 28.3685 35.1037 29.5492C35.0203 29.6921 34.9288 29.835 34.8347 29.9579C35.2831 29.7044 35.7828 29.5703 36.2907 29.5674C36.7987 29.5644 37.2997 29.6925 37.7508 29.9407L41.6354 32.0902C43.7633 29.1339 45.0573 25.5962 45.3668 21.8889C45.6763 18.1817 44.9887 14.4572 43.3838 11.149C41.7789 7.84082 39.3228 5.0849 36.3013 3.20194C33.2799 1.31898 29.8173 0.386429 26.3165 0.512799C22.8157 0.639168 19.4206 1.81926 16.5264 3.91576C13.6321 6.01226 11.3578 8.93895 9.96789 12.3553C8.57802 15.7716 8.12981 19.537 8.67543 23.2134C9.22104 26.8898 10.738 30.326 13.0499 33.1221L17.7953 30.481Z" fill="#EC8305"/>
</g>
<defs>
<clipPath id="clip0_1104_3599">
<rect width="55" height="55" fill="white" transform="translate(0 0.5)"/>
</clipPath>
</defs>
</svg>
