<svg width="28" height="28" viewBox="0 0 28 28" fill="none" xmlns="http://www.w3.org/2000/svg">
<path d="M5.83317 7C4.19984 7 2.9165 5.71667 2.9165 4.08333C2.9165 2.45 4.19984 1.16667 5.83317 1.16667C7.4665 1.16667 8.74984 2.45 8.74984 4.08333C8.74984 5.71667 7.4665 7 5.83317 7Z" fill="black"/>
<path d="M1.1665 12.8333V17.5L2.9165 18.6667L3.49984 26.8333H8.1665L8.74984 18.6667L10.4998 17.5V12.8333C10.4998 10.2667 8.39984 8.16667 5.83317 8.16667C3.2665 8.16667 1.1665 10.2667 1.1665 12.8333Z" fill="black"/>
<path d="M13.067 23.5667C12.717 25.025 12.4837 25.6667 11.667 25.6667C11.317 25.6667 10.967 25.375 10.5587 25.025C9.97533 24.5583 9.27533 23.9167 8.16699 23.9167V25.0833C8.80866 25.0833 9.27533 25.4917 9.80033 25.9C10.3253 26.3083 10.9087 26.8333 11.667 26.8333C13.4753 26.8333 13.8837 25.1417 14.2337 23.8C14.5837 22.2833 14.817 21.5833 15.7503 21.5833V20.4167C13.8253 20.4167 13.3587 22.225 13.067 23.5667Z" fill="black"/>
<path d="M8.40016 23.3333H5.8335V25.6667H8.22516L8.40016 23.3333Z" fill="black"/>
<path d="M20.9998 26.8333C24.2215 26.8333 26.8332 24.2217 26.8332 21C26.8332 17.7783 24.2215 15.1667 20.9998 15.1667C17.7782 15.1667 15.1665 17.7783 15.1665 21C15.1665 24.2217 17.7782 26.8333 20.9998 26.8333Z" fill="black"/>
<path d="M20.4168 19.8333C20.4752 19.95 20.4752 20.0083 20.5918 20.0667C20.6502 20.125 20.7668 20.1833 20.8835 20.3C21.0002 20.3583 21.1752 20.4167 21.3502 20.475C21.6418 20.5917 21.8752 20.7083 22.1085 20.825C22.3418 20.9417 22.5168 21.0583 22.6918 21.2333C22.8668 21.4083 22.9835 21.5833 23.1002 21.7583C23.2168 21.9917 23.2168 22.225 23.2168 22.5167C23.2168 22.75 23.1585 22.9833 23.1002 23.2167C23.0418 23.45 22.9252 23.625 22.7502 23.7417C22.5752 23.9167 22.4002 24.0333 22.2252 24.0917C21.9918 24.2083 21.7585 24.2667 21.5252 24.2667V25.1417H20.8252V24.2667C20.5918 24.2667 20.3585 24.2083 20.1252 24.0917C19.8918 23.975 19.7168 23.8583 19.5418 23.7417C19.3668 23.5667 19.2502 23.3917 19.1335 23.1C19.0168 22.8667 18.9585 22.575 18.9585 22.225H20.2418C20.2418 22.4583 20.2418 22.6333 20.3002 22.75C20.3585 22.8667 20.4168 22.9833 20.5335 23.1C20.6502 23.1583 20.7085 23.2167 20.8252 23.275C20.9418 23.3333 21.0585 23.3333 21.1752 23.3333C21.2918 23.3333 21.4085 23.3333 21.5252 23.275C21.6418 23.2167 21.7002 23.1583 21.7585 23.1C21.8168 23.0417 21.8752 22.925 21.9335 22.8667C21.9918 22.75 21.9918 22.6917 21.9918 22.575C21.9918 22.4583 21.9918 22.3417 21.9335 22.225C21.8752 22.1083 21.8752 22.05 21.7585 21.9917C21.7002 21.9333 21.5835 21.8167 21.4668 21.7583C21.3502 21.7 21.2335 21.6417 21.0585 21.5833C20.7668 21.4667 20.5335 21.35 20.3002 21.2333C20.0668 21.1167 19.8918 21 19.7168 20.825C19.5418 20.65 19.4252 20.475 19.3085 20.3C19.1918 20.0667 19.1918 19.8333 19.1918 19.5417C19.1918 19.3083 19.2502 19.075 19.3085 18.8417C19.3668 18.6667 19.4835 18.4333 19.6585 18.3167C19.8335 18.1417 20.0085 18.025 20.1835 17.9667C20.4168 17.85 20.6502 17.7917 20.8835 17.7917V16.8583H21.5835V17.7917C21.8168 17.85 22.0502 17.9083 22.2835 18.025C22.5168 18.1417 22.6335 18.2583 22.8085 18.4333C22.9252 18.6083 23.0418 18.7833 23.1585 19.0167C23.2168 19.25 23.2752 19.5417 23.2752 19.8333H21.9918C21.9918 19.4833 21.9335 19.25 21.7585 19.075C21.6418 18.9 21.4085 18.8417 21.1752 18.8417C21.0585 18.8417 20.9418 18.8417 20.8252 18.9C20.7085 18.9583 20.6502 19.0167 20.5918 19.075C20.4752 19.075 20.4168 19.1333 20.4168 19.25C20.4168 19.425 20.3585 19.425 20.3585 19.5417C20.3585 19.6583 20.3585 19.775 20.4168 19.8333Z" fill="white"/>
</svg>
