<svg width="28" height="28" viewBox="0 0 28 28" fill="none" xmlns="http://www.w3.org/2000/svg">
<path d="M6.3001 8.05C6.3001 7.21457 6.63197 6.41335 7.22271 5.82261C7.81345 5.23187 8.61467 4.9 9.4501 4.9C10.2855 4.9 11.0867 5.23187 11.6775 5.82261C12.2682 6.41335 12.6001 7.21457 12.6001 8.05C12.6001 8.88543 12.2682 9.68665 11.6775 10.2774C11.0867 10.8681 10.2855 11.2 9.4501 11.2C8.61467 11.2 7.81345 10.8681 7.22271 10.2774C6.63197 9.68665 6.3001 8.88543 6.3001 8.05ZM9.4501 3.5C8.24336 3.5 7.08605 3.97937 6.23276 4.83266C5.37947 5.68595 4.9001 6.84326 4.9001 8.05C4.9001 9.25673 5.37947 10.414 6.23276 11.2673C7.08605 12.1206 8.24336 12.6 9.4501 12.6C10.6568 12.6 11.8141 12.1206 12.6674 11.2673C13.5207 10.414 14.0001 9.25673 14.0001 8.05C14.0001 6.84326 13.5207 5.68595 12.6674 4.83266C11.8141 3.97937 10.6568 3.5 9.4501 3.5ZM14.0001 14C14.3501 14.0019 14.68 14.0621 14.9899 14.1806C14.3095 14.4074 13.7215 14.8386 13.3001 15.4H4.9001C4.52879 15.4 4.1727 15.5475 3.91015 15.8101C3.6476 16.0726 3.5001 16.4287 3.5001 16.8V16.9092L3.5099 17.0254C3.58587 17.6965 3.82526 18.3387 4.2071 18.8958C4.8889 19.8814 6.3183 21 9.4501 21C10.7843 21 11.8105 20.797 12.6001 20.4876V21.7C12.6001 21.7896 12.6034 21.8783 12.6099 21.966C11.7391 22.2376 10.6961 22.4 9.4501 22.4C5.9319 22.4 4.0363 21.112 3.0549 19.6924C2.53816 18.9395 2.2159 18.0704 2.1169 17.1626C2.10891 17.0811 2.10331 16.9994 2.1001 16.9176V16.8C2.1001 16.0574 2.3951 15.3452 2.9202 14.8201C3.4453 14.295 4.15749 14 4.9001 14H14.0001ZM18.2001 9.1C18.2001 8.54305 18.4213 8.0089 18.8152 7.61508C19.209 7.22125 19.7431 7 20.3001 7C20.8571 7 21.3912 7.22125 21.785 7.61508C22.1788 8.0089 22.4001 8.54305 22.4001 9.1C22.4001 9.65695 22.1788 10.1911 21.785 10.5849C21.3912 10.9788 20.8571 11.2 20.3001 11.2C19.7431 11.2 19.209 10.9788 18.8152 10.5849C18.4213 10.1911 18.2001 9.65695 18.2001 9.1ZM20.3001 5.6C19.3718 5.6 18.4816 5.96875 17.8252 6.62513C17.1688 7.2815 16.8001 8.17174 16.8001 9.1C16.8001 10.0283 17.1688 10.9185 17.8252 11.5749C18.4816 12.2313 19.3718 12.6 20.3001 12.6C21.2284 12.6 22.1186 12.2313 22.775 11.5749C23.4313 10.9185 23.8001 10.0283 23.8001 9.1C23.8001 8.17174 23.4313 7.2815 22.775 6.62513C22.1186 5.96875 21.2284 5.6 20.3001 5.6ZM14.0001 17.5C14.0001 16.943 14.2213 16.4089 14.6152 16.0151C15.009 15.6212 15.5431 15.4 16.1001 15.4H24.5001C25.0571 15.4 25.5912 15.6212 25.985 16.0151C26.3788 16.4089 26.6001 16.943 26.6001 17.5V21.7C26.6001 22.257 26.3788 22.7911 25.985 23.1849C25.5912 23.5787 25.0571 23.8 24.5001 23.8H16.1001C15.5431 23.8 15.009 23.5787 14.6152 23.1849C14.2213 22.7911 14.0001 22.257 14.0001 21.7V17.5ZM15.4001 17.5V18.9C15.9571 18.9 16.4912 18.6788 16.885 18.2849C17.2788 17.8911 17.5001 17.357 17.5001 16.8H16.1001C16.1001 16.9857 16.0263 17.1637 15.8951 17.295C15.7638 17.4263 15.5857 17.5 15.4001 17.5ZM25.2001 18.9V17.5C25.0144 17.5 24.8364 17.4263 24.7051 17.295C24.5738 17.1637 24.5001 16.9857 24.5001 16.8H23.1001C23.1001 17.357 23.3213 17.8911 23.7152 18.2849C24.109 18.6788 24.6431 18.9 25.2001 18.9ZM23.1001 22.4H24.5001C24.5001 22.2143 24.5738 22.0363 24.7051 21.905C24.8364 21.7737 25.0144 21.7 25.2001 21.7V20.3C24.6431 20.3 24.109 20.5212 23.7152 20.9151C23.3213 21.3089 23.1001 21.843 23.1001 22.4ZM15.4001 20.3V21.7C15.5857 21.7 15.7638 21.7737 15.8951 21.905C16.0263 22.0363 16.1001 22.2143 16.1001 22.4H17.5001C17.5001 21.843 17.2788 21.3089 16.885 20.9151C16.4912 20.5212 15.9571 20.3 15.4001 20.3ZM20.3001 21.7C20.8571 21.7 21.3912 21.4788 21.785 21.0849C22.1788 20.6911 22.4001 20.157 22.4001 19.6C22.4001 19.043 22.1788 18.5089 21.785 18.1151C21.3912 17.7212 20.8571 17.5 20.3001 17.5C19.7431 17.5 19.209 17.7212 18.8152 18.1151C18.4213 18.5089 18.2001 19.043 18.2001 19.6C18.2001 20.157 18.4213 20.6911 18.8152 21.0849C19.209 21.4788 19.7431 21.7 20.3001 21.7Z" fill="#091057"/>
</svg>
