<svg width="28" height="28" viewBox="0 0 28 28" fill="none" xmlns="http://www.w3.org/2000/svg">
<path d="M9.4501 12.6C10.6568 12.6 11.8141 12.1206 12.6674 11.2673C13.5207 10.414 14.0001 9.25673 14.0001 8.05C14.0001 6.84326 13.5207 5.68595 12.6674 4.83266C11.8141 3.97937 10.6568 3.5 9.4501 3.5C8.24336 3.5 7.08605 3.97937 6.23276 4.83266C5.37947 5.68595 4.9001 6.84326 4.9001 8.05C4.9001 9.25673 5.37947 10.414 6.23276 11.2673C7.08605 12.1206 8.24336 12.6 9.4501 12.6ZM12.6001 17.5C12.6001 16.766 12.8308 16.0506 13.2597 15.4549C13.6885 14.8592 14.2938 14.4134 14.9899 14.1806C14.6736 14.0611 14.3382 13.9999 14.0001 14H4.9001C4.15749 14 3.4453 14.295 2.9202 14.8201C2.3951 15.3452 2.1001 16.0574 2.1001 16.8C2.1001 16.8 2.1001 22.4 9.4501 22.4C10.7059 22.4 11.7461 22.2362 12.6099 21.966C12.6038 21.8775 12.6006 21.7887 12.6001 21.7V17.5ZM23.8001 9.1C23.8001 10.0283 23.4313 10.9185 22.775 11.5749C22.1186 12.2313 21.2284 12.6 20.3001 12.6C19.3718 12.6 18.4816 12.2313 17.8252 11.5749C17.1688 10.9185 16.8001 10.0283 16.8001 9.1C16.8001 8.17174 17.1688 7.2815 17.8252 6.62513C18.4816 5.96875 19.3718 5.6 20.3001 5.6C21.2284 5.6 22.1186 5.96875 22.775 6.62513C23.4313 7.2815 23.8001 8.17174 23.8001 9.1ZM14.0001 17.5C14.0001 16.943 14.2213 16.4089 14.6152 16.0151C15.009 15.6212 15.5431 15.4 16.1001 15.4H24.5001C25.0571 15.4 25.5912 15.6212 25.985 16.0151C26.3788 16.4089 26.6001 16.943 26.6001 17.5V21.7C26.6001 22.257 26.3788 22.7911 25.985 23.1849C25.5912 23.5787 25.0571 23.8 24.5001 23.8H16.1001C15.5431 23.8 15.009 23.5787 14.6152 23.1849C14.2213 22.7911 14.0001 22.257 14.0001 21.7V17.5ZM15.4001 17.5V18.9C15.9571 18.9 16.4912 18.6788 16.885 18.2849C17.2788 17.8911 17.5001 17.357 17.5001 16.8H16.1001C16.1001 16.9857 16.0263 17.1637 15.8951 17.295C15.7638 17.4263 15.5857 17.5 15.4001 17.5ZM25.2001 18.9V17.5C25.0144 17.5 24.8364 17.4263 24.7051 17.295C24.5738 17.1637 24.5001 16.9857 24.5001 16.8H23.1001C23.1001 17.357 23.3213 17.8911 23.7152 18.2849C24.109 18.6788 24.6431 18.9 25.2001 18.9ZM23.1001 22.4H24.5001C24.5001 22.2143 24.5738 22.0363 24.7051 21.905C24.8364 21.7737 25.0144 21.7 25.2001 21.7V20.3C24.6431 20.3 24.109 20.5212 23.7152 20.9151C23.3213 21.3089 23.1001 21.843 23.1001 22.4ZM15.4001 20.3V21.7C15.5857 21.7 15.7638 21.7737 15.8951 21.905C16.0263 22.0363 16.1001 22.2143 16.1001 22.4H17.5001C17.5001 21.843 17.2788 21.3089 16.885 20.9151C16.4912 20.5212 15.9571 20.3 15.4001 20.3ZM20.3001 21.7C20.8571 21.7 21.3912 21.4788 21.785 21.0849C22.1788 20.6911 22.4001 20.157 22.4001 19.6C22.4001 19.043 22.1788 18.5089 21.785 18.1151C21.3912 17.7212 20.8571 17.5 20.3001 17.5C19.7431 17.5 19.209 17.7212 18.8152 18.1151C18.4213 18.5089 18.2001 19.043 18.2001 19.6C18.2001 20.157 18.4213 20.6911 18.8152 21.0849C19.209 21.4788 19.7431 21.7 20.3001 21.7Z" fill="#091057"/>
</svg>
