<svg width="35" height="36" viewBox="0 0 35 36" fill="none" xmlns="http://www.w3.org/2000/svg">
<g id="icon/ home / light">
<path id="Vector" d="M17.8801 7.42342C17.7783 7.32607 17.6429 7.27173 17.5021 7.27173C17.3612 7.27173 17.2258 7.32607 17.124 7.42342L4.53906 19.4458C4.48562 19.4969 4.4431 19.5583 4.41407 19.6264C4.38505 19.6944 4.37013 19.7676 4.37021 19.8416L4.36816 31.125C4.36816 31.7051 4.59863 32.2615 5.00887 32.6718C5.4191 33.082 5.9755 33.3125 6.55566 33.3125H13.125C13.4151 33.3125 13.6933 33.1973 13.8984 32.9921C14.1035 32.787 14.2188 32.5088 14.2188 32.2187V22.9219C14.2188 22.7768 14.2764 22.6377 14.3789 22.5352C14.4815 22.4326 14.6206 22.375 14.7656 22.375H20.2344C20.3794 22.375 20.5185 22.4326 20.6211 22.5352C20.7236 22.6377 20.7813 22.7768 20.7813 22.9219V32.2187C20.7813 32.5088 20.8965 32.787 21.1016 32.9921C21.3067 33.1973 21.5849 33.3125 21.875 33.3125H28.4416C29.0218 33.3125 29.5782 33.082 29.9884 32.6718C30.3986 32.2615 30.6291 31.7051 30.6291 31.125V19.8416C30.6292 19.7676 30.6143 19.6944 30.5852 19.6264C30.5562 19.5583 30.5137 19.4969 30.4603 19.4458L17.8801 7.42342Z" fill="#EC8305"/>
<path id="Vector_2" d="M33.5583 17.1899L28.445 12.2981V4.875C28.445 4.58492 28.3298 4.30672 28.1247 4.1016C27.9196 3.89648 27.6414 3.78125 27.3513 3.78125H24.07C23.78 3.78125 23.5018 3.89648 23.2966 4.1016C23.0915 4.30672 22.9763 4.58492 22.9763 4.875V7.0625L19.0169 3.27676C18.6464 2.90215 18.0954 2.6875 17.5 2.6875C16.9067 2.6875 16.3571 2.90215 15.9865 3.27744L1.44651 17.1886C1.02131 17.5987 0.967995 18.2734 1.35491 18.7178C1.45207 18.8299 1.57103 18.9211 1.70457 18.9859C1.8381 19.0506 1.9834 19.0875 2.13164 19.0942C2.27987 19.101 2.42793 19.0776 2.56681 19.0253C2.70569 18.973 2.83249 18.8931 2.93948 18.7902L17.124 5.23594C17.2258 5.13858 17.3612 5.08424 17.5021 5.08424C17.6429 5.08424 17.7783 5.13858 17.8801 5.23594L32.066 18.7902C32.275 18.9906 32.5549 19.1 32.8444 19.0944C33.1338 19.0887 33.4093 18.9685 33.6103 18.7602C34.03 18.3254 33.9951 17.6076 33.5583 17.1899Z" fill="#EC8305"/>
</g>
</svg>
