<svg width="28" height="28" viewBox="0 0 28 28" fill="none" xmlns="http://www.w3.org/2000/svg">
<path d="M16.3335 11.6667L12.8335 15.1667M23.6695 3.53617C23.7802 3.49797 23.8994 3.49168 24.0135 3.51803C24.1276 3.54438 24.232 3.6023 24.3148 3.68517C24.3975 3.76804 24.4553 3.87252 24.4815 3.98667C24.5077 4.10081 24.5012 4.22002 24.4628 4.33067L17.5515 24.0823C17.5101 24.2004 17.4343 24.3033 17.3337 24.3777C17.2331 24.4522 17.1125 24.4946 16.9875 24.4997C16.8625 24.5047 16.7389 24.472 16.6327 24.406C16.5264 24.3399 16.4425 24.2434 16.3918 24.129L12.6363 15.68C12.5731 15.5395 12.4607 15.427 12.3202 15.3638L3.87117 11.6072C3.75718 11.5563 3.66107 11.4724 3.59525 11.3663C3.52944 11.2602 3.49695 11.1368 3.50197 11.0121C3.507 10.8874 3.54931 10.767 3.62344 10.6666C3.69757 10.5661 3.80012 10.4902 3.91783 10.4487L23.6695 3.53617Z" stroke="#091057" stroke-width="1.75" stroke-linecap="round" stroke-linejoin="round"/>
</svg>
