<svg width="30" height="38" viewBox="0 0 30 38" fill="none" xmlns="http://www.w3.org/2000/svg">
<g clip-path="url(#clip0_1176_1888)">
<path d="M15 37.2812C15.9946 37.2812 16.9484 36.8862 17.6516 36.1829C18.3549 35.4796 18.75 34.5258 18.75 33.5312H11.25C11.25 34.5258 11.6451 35.4796 12.3483 36.1829C13.0516 36.8862 14.0054 37.2812 15 37.2812ZM26.25 26.0312V16.6562C26.4369 14.0089 25.6973 11.3789 24.1579 9.21701C22.6186 7.05509 20.3753 5.49578 17.8125 4.80625V0.71875H12.1875V4.80625C9.60582 5.46276 7.34086 7.01406 5.79578 9.18404C4.2507 11.354 3.52576 14.0019 3.75 16.6562V26.0312L0 29.7812V31.6562H30V29.7812L26.25 26.0312Z" fill="#121619"/>
</g>
<defs>
<clipPath id="clip0_1176_1888">
<rect width="30" height="36.5625" fill="white" transform="translate(0 0.71875)"/>
</clipPath>
</defs>
</svg>
