<svg width="35" height="36" viewBox="0 0 35 36" fill="none" xmlns="http://www.w3.org/2000/svg">
<path d="M20.2032 5.08864C20.3399 5.22538 20.4167 5.41081 20.4167 5.60416C20.4167 5.79751 20.3399 5.98294 20.2032 6.11968L18.5312 7.79166L20.2032 9.46364C20.336 9.60116 20.4095 9.78535 20.4078 9.97654C20.4062 10.1677 20.3295 10.3506 20.1943 10.4858C20.0591 10.621 19.8762 10.6977 19.685 10.6993C19.4939 10.701 19.3097 10.6275 19.1721 10.4947L17.5002 8.8227L15.8282 10.4947C15.7604 10.5624 15.68 10.6161 15.5915 10.6527C15.503 10.6893 15.4082 10.7081 15.3124 10.7081C15.2166 10.7081 15.1218 10.6892 15.0333 10.6525C14.9449 10.6158 14.8645 10.5621 14.7968 10.4943C14.7291 10.4266 14.6754 10.3462 14.6388 10.2577C14.6021 10.1692 14.5833 10.0743 14.5833 9.97854C14.5834 9.88276 14.6023 9.78793 14.639 9.69946C14.6756 9.61099 14.7294 9.53061 14.7971 9.46291L16.4691 7.79166L14.7971 6.11968C14.7294 6.05194 14.6758 5.97152 14.6391 5.88302C14.6025 5.79452 14.5837 5.69968 14.5837 5.6039C14.5837 5.50813 14.6026 5.4133 14.6393 5.32483C14.676 5.23636 14.7298 5.15598 14.7975 5.08828C14.8653 5.02058 14.9457 4.96688 15.0342 4.93026C15.1227 4.89364 15.2175 4.87481 15.3133 4.87485C15.4091 4.87488 15.5039 4.89378 15.5924 4.93046C15.6808 4.96714 15.7612 5.02089 15.8289 5.08864L17.5002 6.76062L19.1721 5.08864C19.3089 4.95194 19.4943 4.87515 19.6877 4.87515C19.881 4.87515 20.0664 4.95194 20.2032 5.08864ZM13.9987 24.3642C14.4869 24.5268 15.0129 24.5381 15.5076 24.3966C16.0024 24.255 16.4428 23.9671 16.771 23.5708V31.1418L8.021 27.8437V22.3721L13.9987 24.3642Z" fill="black"/>
<path fill-rule="evenodd" clip-rule="evenodd" d="M26.9794 27.8437L18.2294 31.1418V23.5708C18.5576 23.9671 18.998 24.255 19.4928 24.3966C19.9875 24.5381 20.5135 24.5268 21.0017 24.3642L26.9794 22.3721V27.8437ZM17.7387 11.4776C17.5842 11.4242 17.4163 11.4242 17.2618 11.4776L7.78409 14.7589L7.76732 14.764C7.6399 14.8114 7.52827 14.8934 7.44503 15.0009L4.53566 18.638C4.46217 18.7297 4.41194 18.8378 4.38923 18.9531C4.36652 19.0684 4.37202 19.1875 4.40525 19.3002C4.43847 19.4129 4.49845 19.5159 4.58006 19.6005C4.66168 19.685 4.76252 19.7486 4.87399 19.7857L14.7177 23.067C14.8668 23.1165 15.0279 23.1166 15.177 23.0672C15.3262 23.0178 15.4553 22.9216 15.5453 22.7928L17.5002 20.0001L19.4544 22.7928C19.5445 22.9217 19.6738 23.0181 19.823 23.0675C19.9723 23.1169 20.1336 23.1167 20.2827 23.067L30.1265 19.7857C30.238 19.7486 30.3389 19.6851 30.4206 19.6006C30.5023 19.5161 30.5624 19.4131 30.5957 19.3004C30.629 19.1877 30.6346 19.0686 30.6119 18.9532C30.5892 18.8379 30.539 18.7298 30.4656 18.638L27.5562 15.0009C27.469 14.8886 27.3509 14.8042 27.2164 14.7581L17.7387 11.4776ZM17.5002 17.9577L24.7503 15.4479L17.5002 12.9381L10.2501 15.4479L17.5002 17.9577Z" fill="black"/>
</svg>
